# File created by Blade
# Date/Time:  Thu Sep 25 15:41:58 2014
# Frame Rate: 120.000 fps
#------------------------------------------------------
:FULLY-SPECIFIED
:DEGREES
869
root 25.096264 32.625086 3.179176 4.771517 -54.211778 1.940435
Spine 4.801663 12.888002 1.270880
Head -23.908166 33.695788 -2.465100
LeftShoulder -10.934785 32.930434 12.232740
LeftArm 40.968441 33.504400 -48.309785
LeftForeArm 3.030788 0.000000 94.201285
LeftHand -23.421439 -0.000000 -24.419558
LeftHandThumb1 -26.253704 0.000000 33.147579
RightShoulder -14.613988 1.895757 -24.934903
RightArm -9.436475 -48.738665 82.968503
RightForeArm -7.039017 -0.000000 99.330633
RightHand -2.391411 -0.000000 25.391689
RightHandThumb1 -24.326973 -0.000000 -32.862282
LeftUpLeg -14.004066 0.443576 -3.553764
LeftLeg 18.591784 -0.000000 -0.000000
LeftFoot -18.422440 4.097382 -25.219985
LeftToeBase 2.392656 -0.000000 -0.000000
RightUpLeg -19.748636 -15.578369 1.393192
RightLeg 39.322959 -0.000000 -0.000000
RightFoot -17.479825 -26.894584 3.682774
RightToeBase 0.735011 -0.000000 -0.000000
870
root 25.109442 32.629083 3.192451 4.989665 -53.736335 1.623320
Spine 4.836469 12.693260 1.442004
Head -23.794966 33.381801 -2.307777
LeftShoulder -10.755105 32.764045 12.379357
LeftArm 41.064524 33.694107 -48.180674
LeftForeArm 2.496081 -0.000000 93.829629
LeftHand -23.390360 0.000000 -24.134988
LeftHandThumb1 -26.253704 0.000000 33.147579
RightShoulder -14.648258 1.858296 -24.871719
RightArm -9.212879 -48.765158 82.810439
RightForeArm -7.086109 -0.000000 99.298318
RightHand -2.582811 -0.000000 25.567619
RightHandThumb1 -24.326973 -0.000000 -32.862282
LeftUpLeg -14.130841 0.620659 -3.440451
LeftLeg 18.868340 -0.000000 -0.000000
LeftFoot -18.264024 3.693784 -24.965512
LeftToeBase 2.484557 -0.000000 -0.000000
RightUpLeg -20.165993 -15.232458 1.382190
RightLeg 40.389208 -0.000000 -0.000000
RightFoot -16.664626 -26.902669 2.636745
RightToeBase 1.024310 -0.000000 -0.000000
871
root 25.118741 32.636489 3.208658 5.184281 -53.225060 1.263211
Spine 4.934846 12.445244 1.689443
Head -23.692001 33.131831 -2.200295
LeftShoulder -10.576963 32.667488 12.489700
LeftArm 41.132446 33.786995 -48.193904
LeftForeArm 2.030528 -0.000000 93.475456
LeftHand -23.389369 -0.000000 -24.145271
LeftHandThumb1 -26.253704 0.000000 33.147579
RightShoulder -14.628824 1.906638 -24.873174
RightArm -9.084598 -48.827405 82.733937
RightForeArm -7.130826 0.000000 99.172426
RightHand -2.646225 -0.000000 25.672838
RightHandThumb1 -24.326973 -0.000000 -32.862282
LeftUpLeg -14.155818 0.728155 -3.287332
LeftLeg 19.069609 -0.000000 -0.000000
LeftFoot -18.101980 3.290085 -24.752024
LeftToeBase 2.517383 -0.000000 -0.000000
RightUpLeg -20.473509 -14.900760 1.361586
RightLeg 41.346418 -0.000000 -0.000000
RightFoot -15.948245 -26.799436 1.733961
RightToeBase 1.008626 -0.000000 -0.000000
872
root 25.121981 32.645793 3.223411 5.346146 -52.650940 0.931851
Spine 5.024661 12.163777 1.900600
Head -23.534302 32.840950 -1.965834
LeftShoulder -10.338012 32.509849 12.690368
LeftArm 41.100699 33.927518 -48.306850
LeftForeArm 1.517536 0.000000 93.158431
LeftHand -23.303648 -0.000000 -24.033274
LeftHandThumb1 -26.253704 0.000000 33.147579
RightShoulder -14.617320 1.988249 -24.879751
RightArm -9.087125 -48.798735 82.812566
RightForeArm -6.887122 -0.000000 98.988870
RightHand -2.636185 -0.000000 26.255857
RightHandThumb1 -24.326973 -0.000000 -32.862282
LeftUpLeg -14.093036 0.522824 -3.095872
LeftLeg 19.119168 -0.000000 -0.000000
LeftFoot -17.987177 3.018975 -24.722904
LeftToeBase 2.611177 -0.000000 -0.000000
RightUpLeg -20.732170 -14.641329 1.356174
RightLeg 42.199942 -0.000000 -0.000000
RightFoot -15.124876 -26.723932 0.527477
RightToeBase 0.552216 -0.000000 -0.000000
873
root 25.122082 32.657784 3.252122 5.296813 -52.051287 0.782022
Spine 5.173520 11.846717 2.003320
Head -23.412051 32.594675 -1.717483
LeftShoulder -10.151581 32.429434 12.853486
LeftArm 41.160228 34.018944 -48.333762
LeftForeArm 0.932292 -0.000000 92.866088
LeftHand -23.360392 0.000000 -24.130462
LeftHandThumb1 -26.253704 0.000000 33.147579
RightShoulder -14.635005 1.998774 -24.839750
RightArm -9.025012 -48.748113 82.796078
RightForeArm -7.004431 0.000000 98.884348
RightHand -2.769865 -0.000000 25.866803
RightHandThumb1 -24.326973 -0.000000 -32.862282
LeftUpLeg -13.869301 0.134011 -3.011081
LeftLeg 19.012167 -0.000000 -0.000000
LeftFoot -17.854034 2.939999 -24.695144
LeftToeBase 2.590363 -0.000000 -0.000000
RightUpLeg -20.903504 -14.502582 1.182404
RightLeg 43.062395 -0.000000 -0.000000
RightFoot -14.833893 -26.335080 -0.055062
RightToeBase -0.033659 -0.000000 0.000000
874
root 25.119167 32.675007 3.269635 5.343140 -51.535328 0.540730
Spine 5.300962 11.610109 2.137366
Head -23.360633 32.427984 -1.557347
LeftShoulder -9.924493 32.188834 13.055113
LeftArm 41.013892 34.216474 -48.512733
LeftForeArm 0.577363 0.000000 92.614547
LeftHand -23.299293 -0.000000 -23.757911
LeftHandThumb1 -26.253704 0.000000 33.147579
RightShoulder -14.589553 2.056095 -24.782784
RightArm -9.063662 -48.666489 82.848795
RightForeArm -6.955409 -0.000000 98.749156
RightHand -2.831631 0.000000 25.555605
RightHandThumb1 -24.326973 -0.000000 -32.862282
LeftUpLeg -13.645629 -0.278052 -2.846296
LeftLeg 18.847983 -0.000000 -0.000000
LeftFoot -17.732927 3.010239 -24.702421
LeftToeBase 2.074659 -0.000000 -0.000000
RightUpLeg -20.983819 -14.095530 1.076104
RightLeg 43.608512 -0.000000 -0.000000
RightFoot -14.503451 -26.071522 -0.675135
RightToeBase -0.337394 -0.000000 0.000000
875
root 25.041175 32.700505 3.343068 4.868785 -52.098196 0.731876
Spine 5.339394 12.521374 1.619947
Head -22.932409 32.225999 -0.669890
LeftShoulder -9.826642 32.331394 13.269331
LeftArm 41.100461 34.272599 -48.227032
LeftForeArm 0.237440 -0.000000 92.436856
LeftHand -23.311772 -0.000000 -23.491317
LeftHandThumb1 -26.253704 0.000000 33.147579
RightShoulder -14.752194 1.833966 -24.275864
RightArm -8.945045 -48.789595 82.783312
RightForeArm -6.952525 -0.000000 98.556775
RightHand -2.842750 0.000000 25.739528
RightHandThumb1 -24.326973 -0.000000 -32.862282
LeftUpLeg -12.757532 0.572315 -3.063415
LeftLeg 18.115497 -0.000000 -0.000000
LeftFoot -17.503546 2.968073 -24.521596
LeftToeBase 2.010243 -0.000000 -0.000000
RightUpLeg -20.726078 -12.669944 0.535158
RightLeg 44.026528 -0.000000 -0.000000
RightFoot -14.985235 -25.414474 -0.383709
RightToeBase 0.270694 -0.000000 -0.000000
876
root 24.990149 32.718098 3.361888 5.043674 -52.101882 0.372090
Spine 5.256208 12.876650 1.590266
Head -22.649167 31.968664 0.036339
LeftShoulder -9.741502 32.310519 13.518627
LeftArm 41.162684 34.466512 -48.142677
LeftForeArm -0.021148 -0.000000 92.261538
LeftHand -23.332421 -0.000000 -23.022696
LeftHandThumb1 -26.253704 0.000000 33.147579
RightShoulder -14.784214 1.898114 -24.068556
RightArm -9.239068 -48.796463 83.031986
RightForeArm -6.812401 -0.000000 98.423323
RightHand -2.894950 0.000000 25.781176
RightHandThumb1 -24.326973 -0.000000 -32.862282
LeftUpLeg -12.542665 1.487781 -2.896225
LeftLeg 18.070915 -0.000000 -0.000000
LeftFoot -17.217506 2.322988 -24.157073
LeftToeBase 1.917289 -0.000000 -0.000000
RightUpLeg -20.722133 -11.627208 0.505124
RightLeg 44.298322 -0.000000 -0.000000
RightFoot -14.869065 -25.096554 -0.660211
RightToeBase -0.656250 -0.000000 0.000000
877
root 24.973202 32.733370 3.382544 5.111985 -51.648454 0.256956
Spine 5.146862 12.747149 1.512927
Head -22.484514 31.798115 0.494199
LeftShoulder -9.683442 32.243455 13.715420
LeftArm 41.264882 34.643695 -48.084075
LeftForeArm -0.376695 -0.000000 92.108285
LeftHand -23.333704 -0.000000 -22.711294
LeftHandThumb1 -26.253704 0.000000 33.147579
RightShoulder -14.838865 1.806959 -23.925730
RightArm -9.150640 -48.785986 83.022472
RightForeArm -6.586088 -0.000000 98.268855
RightHand -2.868112 -0.000000 25.881841
RightHandThumb1 -24.326973 -0.000000 -32.862282
LeftUpLeg -12.432023 1.301687 -2.827825
LeftLeg 17.921930 -0.000000 -0.000000
LeftFoot -17.005770 2.193005 -24.103330
LeftToeBase 1.645733 -0.000000 -0.000000
RightUpLeg -20.850127 -11.237862 0.353500
RightLeg 44.582327 -0.000000 -0.000000
RightFoot -14.779544 -24.621084 -1.187418
RightToeBase -0.873374 -0.000000 0.000000
878
root 24.973612 32.747321 3.395415 5.180145 -51.138122 0.231400
Spine 4.995234 12.544778 1.368633
Head -22.361167 31.654568 0.927626
LeftShoulder -9.577679 32.000367 14.011978
LeftArm 41.224460 34.921492 -48.216795
LeftForeArm -0.569862 0.000000 91.944843
LeftHand -23.230955 -0.000000 -22.775594
LeftHandThumb1 -26.253704 0.000000 33.147579
RightShoulder -14.848373 1.864367 -23.835098
RightArm -9.290054 -48.747441 83.167773
RightForeArm -6.430751 0.000000 98.174479
RightHand -2.949030 -0.000000 25.901838
RightHandThumb1 -24.326973 -0.000000 -32.862282
LeftUpLeg -12.408853 0.790628 -2.798939
LeftLeg 17.750020 -0.000000 -0.000000
LeftFoot -16.924545 2.380363 -24.014500
LeftToeBase 1.742081 -0.000000 -0.000000
RightUpLeg -21.090435 -10.864535 0.160606
RightLeg 44.840494 -0.000000 -0.000000
RightFoot -14.677109 -24.238314 -1.615713
RightToeBase -0.895129 -0.000000 0.000000
879
root 24.975772 32.761226 3.413589 5.312091 -50.667676 0.183443
Spine 4.759278 12.397054 1.271324
Head -22.161566 31.432603 1.389703
LeftShoulder -9.539118 31.873381 14.209130
LeftArm 41.379115 35.165319 -48.194061
LeftForeArm -0.670077 -0.000000 91.758638
LeftHand -23.151223 0.000000 -22.953816
LeftHandThumb1 -26.253704 0.000000 33.147579
RightShoulder -14.852555 1.863460 -23.783212
RightArm -9.410356 -48.687573 83.289768
RightForeArm -6.145545 0.000000 98.058738
RightHand -2.913415 -0.000000 26.101591
RightHandThumb1 -24.326973 -0.000000 -32.862282
LeftUpLeg -12.418070 0.398175 -2.778054
LeftLeg 17.563615 -0.000000 -0.000000
LeftFoot -16.780016 2.497948 -23.832296
LeftToeBase 1.639929 -0.000000 -0.000000
RightUpLeg -21.325380 -10.474466 -0.033947
RightLeg 44.965113 -0.000000 -0.000000
RightFoot -14.687332 -23.731291 -1.821831
RightToeBase -1.075938 -0.000000 0.000000
880
root 24.968790 32.775744 3.421663 5.567439 -50.193362 0.026150
Spine 4.476386 12.272659 1.217024
Head -22.004074 31.204047 1.831546
LeftShoulder -9.512407 31.736719 14.386540
LeftArm 41.552274 35.429650 -48.098804
LeftForeArm -0.787378 -0.000000 91.601573
LeftHand -23.136636 -0.000000 -22.906048
LeftHandThumb1 -26.253704 0.000000 33.147579
RightShoulder -14.896215 1.846370 -23.711512
RightArm -9.534613 -48.682149 83.427493
RightForeArm -5.915720 -0.000000 97.953199
RightHand -2.936106 -0.000000 26.191803
RightHandThumb1 -24.326973 -0.000000 -32.862282
LeftUpLeg -12.435592 -0.101058 -2.634295
LeftLeg 17.326719 -0.000000 -0.000000
LeftFoot -16.838440 2.515427 -24.215106
LeftToeBase 2.236478 -0.000000 -0.000000
RightUpLeg -21.559761 -10.005607 -0.126629
RightLeg 44.971882 -0.000000 -0.000000
RightFoot -14.837009 -23.293839 -1.798365
RightToeBase -1.005591 -0.000000 0.000000
881
root 24.946734 32.790033 3.441738 5.567129 -49.967199 0.051871
Spine 4.293121 12.436616 0.971628
Head -21.829226 30.912769 2.406791
LeftShoulder -9.451525 31.654257 14.604947
LeftArm 41.798099 35.621383 -47.884828
LeftForeArm -0.947001 -0.000000 91.465654
LeftHand -23.119535 0.000000 -22.632773
LeftHandThumb1 -26.253704 0.000000 33.147579
RightShoulder -14.973382 1.762678 -23.562139
RightArm -9.601508 -48.622406 83.558011
RightForeArm -5.771621 0.000000 97.819721
RightHand -3.001051 -0.000000 26.324891
RightHandThumb1 -24.326973 -0.000000 -32.862282
LeftUpLeg -12.333537 0.086925 -2.684679
LeftLeg 17.152510 -0.000000 -0.000000
LeftFoot -16.671388 2.330922 -24.085067
LeftToeBase 2.333733 -0.000000 -0.000000
RightUpLeg -21.651327 -9.397736 -0.386553
RightLeg 44.867056 -0.000000 -0.000000
RightFoot -14.720570 -23.156827 -2.096961
RightToeBase -1.219393 -0.000000 0.000000
